<svg width="160" height="20" viewBox="0 0 160 20" xmlns="http://www.w3.org/2000/svg">
  <path d="M15.09798,18.85032c-5.05803-.13509-10.30763,.08194-15.04012,1.00651-.13619-.95115-.02657-1.74064,.27239-2.50244,.27128-.73412,.76181-1.41399,1.2778-2.14811C4.81803,10.80043,8.4344,6.42115,12.35194,2.36963c.13509-.16388,.05426-.35433-.13619-.3809-4.02605-.30007-8.02332,.29896-11.45034,1.57676-.13619-.46173-.05426-.95115,.13619-1.35973,.24471-.48942,.70644-.87032,1.25122-1.00651C5.68835,.24809,9.79524-.21475,13.46696,.32892c.43516,.05536,.84264,.24471,1.11503,.57135,.24471,.27239,.35322,.62561,.32554,1.00651-.02657,.40748-.21703,.84264-.62561,1.22354C9.76755,7.61812,5.68835,12.54106,2.36985,17.57252c4.0792-.48942,8.51273-.62561,12.75581-.54367,0,.46173-.02768,1.35973-.02768,1.82147Z" fill="#fff"/>
  <path d="M28.70529,19.776c-.43516-.16388-.7607-.49052-.89689-.97994-.10851-.43516-.21813-1.03309-.29896-1.35973-1.30548,1.22465-2.5567,1.93109-3.97069,2.31199-1.55129,.40748-3.26425,.35322-4.5963-.40748-1.22465-.70755-1.93109-2.04071-1.93109-3.48127,0-1.2789,.67987-2.4205,1.71296-3.18231,1.08845-.78949,2.44819-1.08845,3.75366-1.2789,1.68638-.27128,3.20888-.59793,4.92184-1.03309,.19045-.87032-.02657-1.71406-.70644-2.28431-.67987-.57135-1.60444-.81606-2.5567-.81606-1.16928,0-2.36625,.35322-3.23657,.84264-1.03309,.57135-2.01303,1.44167-2.80141,2.36625-.43516-.32665-.70755-.84264-.73412-1.33205-.02768-.3809,.10851-.78949,.3809-1.06077,.78838-.76181,1.6587-1.35973,2.58327-1.79489,1.06077-.5171,2.20348-.81606,3.37276-.84374,1.22354-.05426,2.47476,.21813,3.56321,.76181,1.08734,.54367,1.63102,1.22354,1.87572,2.0396,.24582,.78838,.19045,1.98534,.08194,3.18231-.13619,1.22354-.16277,2.61096,0,3.94301,.16388,1.55129,.5171,3.0738,1.08845,4.37927-.5171,.21703-1.11503,.21703-1.60555,.02768Zm-5.54745-6.63701c-1.19696,.21813-2.36625,.43516-3.37276,1.11503-.62561,.43516-.95226,1.33316-.81606,2.06728,.21813,1.00651,1.11503,1.60444,2.06728,1.71406,1.11503,.10851,2.14811-.10962,3.07269-.5171,1.19696-.54367,2.23005-1.46825,3.0738-2.58438,0-.65219,.02657-1.95766,.02657-2.63753-1.38631,.3809-2.69179,.62561-4.05152,.84264Z" fill="#fff"/>
  <path d="M37.63436,7.29147c-.65329,.02768-1.22354,.27239-1.82258,.78949-.97883,.87032-1.63102,2.12154-1.82147,3.42702-.16388,2.90992-.13619,5.27617-.02768,8.24034-.59793,0-1.57787,.02768-1.95877,.02768-.21703-4.65166,.02768-9.38416,.3809-14.03472,.46284-.02657,1.35973-.05426,1.95877-.05426-.05426,.54367-.08194,1.19696-.10851,1.71406,.46173-.73523,1.08734-1.30548,1.82147-1.63212,.78949-.3809,1.68638-.43516,2.58438-.19045,.43516,.13619,.70644,.43516,.89689,.81606,.19045,.43516,.29896,.97883,.32665,1.44167-.81606-.3809-1.57787-.57135-2.23005-.54478Z" fill="#fff"/>
  <path d="M46.99526,7.29147c-.65329,.02768-1.22354,.27239-1.82258,.78949-.97883,.87032-1.63102,2.12154-1.82147,3.42702-.16388,2.90992-.13619,5.27617-.02768,8.24034-.59793,0-1.57787,.02768-1.95877,.02768-.21703-4.65166,.02768-9.38416,.3809-14.03472,.46284-.02657,1.35973-.05426,1.95877-.05426-.05426,.54367-.08194,1.19696-.10851,1.71406,.46173-.73523,1.08734-1.30548,1.82147-1.63212,.78949-.3809,1.68638-.43516,2.58438-.19045,.43516,.13619,.70644,.43516,.89689,.81606,.19045,.43516,.29896,.97883,.32665,1.44167-.81606-.3809-1.57787-.57135-2.23005-.54478Z" fill="#fff"/>
  <path d="M62.23027,19.776c-.43516-.16388-.7607-.49052-.89689-.97994-.10851-.43516-.21813-1.03309-.29896-1.35973-1.30548,1.22465-2.5567,1.93109-3.97069,2.31199-1.55019,.40748-3.26425,.35322-4.59741-.40748-1.22354-.70755-1.92998-2.04071-1.92998-3.48127,0-1.2789,.67987-2.4205,1.71296-3.18231,1.08734-.78949,2.44819-1.08845,3.75366-1.2789,1.68527-.27128,3.20888-.59793,4.92184-1.03309,.19045-.87032-.02657-1.71406-.70644-2.28431-.67987-.57135-1.60444-.81606-2.5567-.81606-1.16928,0-2.36625,.35322-3.23657,.84264-1.03309,.57135-2.01303,1.44167-2.80141,2.36625-.43516-.32665-.70755-.84264-.73412-1.33205-.02768-.3809,.10851-.78949,.3809-1.06077,.78838-.76181,1.6587-1.35973,2.58327-1.79489,1.06077-.5171,2.20348-.81606,3.37276-.84374,1.22354-.05426,2.47476,.21813,3.56321,.76181,1.08734,.54367,1.63102,1.22354,1.87572,2.0396,.24471,.78838,.19045,1.98534,.08194,3.18231-.13619,1.22354-.16277,2.61096,0,3.94301,.16277,1.55129,.5171,3.0738,1.08845,4.37927-.5171,.21703-1.11503,.21703-1.60555,.02768Zm-5.54745-6.63701c-1.19696,.21813-2.36625,.43516-3.37276,1.11503-.62561,.43516-.95226,1.33316-.81606,2.06728,.21813,1.00651,1.11503,1.60444,2.06728,1.71406,1.11503,.10851,2.14811-.10962,3.07269-.5171,1.19696-.54367,2.23116-1.46825,3.0738-2.58438,0-.65219,.02768-1.95766,.02768-2.63753-1.38742,.3809-2.69289,.62561-4.05263,.84264Z" fill="#fff"/>
  <path d="M71.16044,7.29147c-.65329,.02768-1.22354,.27239-1.82258,.78949-.97883,.87032-1.63102,2.12154-1.82147,3.42702-.16388,2.90992-.13619,5.27617-.02768,8.24034-.59793,0-1.57787,.02768-1.95877,.02768-.21703-4.65166,.02768-9.38416,.3809-14.03472,.46284-.02657,1.35973-.05426,1.95877-.05426-.05426,.54367-.08194,1.19696-.10851,1.71406,.46173-.73523,1.08734-1.30548,1.82147-1.63212,.78949-.3809,1.68638-.43516,2.58438-.19045,.43516,.13619,.70644,.43516,.89689,.81606,.19045,.43516,.29896,.97883,.32665,1.44167-.81606-.3809-1.57787-.57135-2.23005-.54478Z" fill="#fff"/>
  <path d="M96.59899,17.57252c-1.00651,1.14271-2.39282,1.82258-3.88875,2.14811-1.95877,.43516-4.08031,.32665-5.8752-.18934-1.14271-.32665-2.01303-.84374-2.71947-1.57787-.70755-.73412-1.30548-1.74064-1.71406-2.88335-.19045-.48942-.02657-.87032,.27239-1.16928,.32665-.29896,.84264-.54367,1.33316-.70755,.18934,1.25122,.59793,2.36625,1.30548,3.20999,.59793,.70644,1.41399,1.19696,2.44708,1.41399,1.2789,.24471,2.74715,.40748,4.10688,.19045,1.30548-.21703,2.50244-.78838,3.39934-1.87683,.57135-.70644,.78949-1.55019,.57135-2.47476-.19045-.81606-.81606-1.35973-1.55019-1.71296-1.38742-.68097-3.18231-1.22465-4.89526-1.65981-1.76832-.43516-3.50896-1.03309-4.94952-2.25663-.95226-.81606-1.38742-1.93109-1.33316-3.12805,.08194-1.25122,.67987-2.28431,1.55019-3.12805,1.46825-1.41399,3.80792-1.90341,6.255-1.74064,1.46935,.08194,2.96528,.59904,4.24308,1.41399,1.14271,.76181,2.06728,1.82258,2.39393,3.23657,.08083,.3809-.05426,.70755-.32665,.92568-.35322,.29896-.92458,.48942-1.49593,.48942-.13619-1.19696-.54367-2.39393-1.55019-3.10037-.84264-.59904-2.25773-.97994-3.23657-1.08845-1.46825-.19045-3.20888,.02768-4.48779,.81606-.73412,.43516-1.35973,1.16928-1.41399,2.06728-.05426,.92458,.46284,1.74064,1.19696,2.25663,.97883,.70755,3.04611,1.30548,4.35159,1.68638,1.49593,.40858,3.1812,.92458,4.5963,1.49593,1.46825,.59904,2.47476,1.84915,2.63753,3.4547,.16388,1.44057-.29896,2.82798-1.22354,3.88875Z" fill="#fff"/>
  <path d="M111.40437,19.28548c-.35433,.30007-.87032,.46284-1.49593,.49052,.08083-3.37276,.08083-6.74552-.29896-9.98209-.13619-1.22354-.5171-1.93109-1.14271-2.28431-.67987-.35322-1.60444-.29896-2.77373,.02657-1.08845,.30007-2.39393,1.30548-3.40044,2.23116-.10851,3.15463-.16277,6.58165-.08083,9.9533-.62561,.02768-1.55019,.02768-2.01303,.02768-.13619-6.52739,.27239-13.16329,.87032-19.52791h1.93109c-.21813,2.61096-.40748,4.78675-.59793,7.20726,1.06077-.81606,2.33857-1.55019,3.67173-1.82147,1.1416-.24582,2.31088-.16388,3.39934,.43405,1.03309,.54478,1.55019,1.49593,1.79489,2.53012,.48942,1.90341,.67987,6.88061,.67987,9.46499,0,.51599-.19045,.95115-.54367,1.25011Z" fill="#fff"/>
  <path d="M125.58082,19.776c-.43516-.16388-.7607-.49052-.89689-.97994-.10851-.43516-.21813-1.03309-.29896-1.35973-1.30548,1.22465-2.5567,1.93109-3.97069,2.31199-1.55129,.40748-3.26425,.35322-4.5963-.40748-1.22465-.70755-1.93109-2.04071-1.93109-3.48127,0-1.2789,.67987-2.4205,1.71296-3.18231,1.08845-.78949,2.44819-1.08845,3.75366-1.2789,1.68638-.27128,3.20888-.59793,4.92184-1.03309,.19045-.87032-.02657-1.71406-.70644-2.28431-.67987-.57135-1.60444-.81606-2.5567-.81606-1.16928,0-2.36625,.35322-3.23657,.84264-1.03309,.57135-2.01303,1.44167-2.80141,2.36625-.43516-.32665-.70755-.84264-.73412-1.33205-.02768-.3809,.10851-.78949,.3809-1.06077,.78838-.76181,1.6587-1.35973,2.58327-1.79489,1.06077-.5171,2.20348-.81606,3.37276-.84374,1.22354-.05426,2.47476,.21813,3.56321,.76181,1.08734,.54367,1.63102,1.22354,1.87572,2.0396,.24582,.78838,.19045,1.98534,.08194,3.18231-.13619,1.22354-.16277,2.61096,0,3.94301,.16388,1.55129,.5171,3.0738,1.08845,4.37927-.5171,.21703-1.11503,.21703-1.60555,.02768Zm-5.54745-6.63701c-1.19696,.21813-2.36625,.43516-3.37276,1.11503-.62561,.43516-.95226,1.33316-.81606,2.06728,.21813,1.00651,1.11503,1.60444,2.06728,1.71406,1.11503,.10851,2.14811-.10962,3.07269-.5171,1.19696-.54367,2.23005-1.46825,3.0738-2.58438,0-.65219,.02657-1.95766,.02657-2.63753-1.38631,.3809-2.69179,.62561-4.05152,.84264Z" fill="#fff"/>
  <path d="M129.80507,2.99524V.22041h1.98534c.02657,.67987,.02657,1.87683,.02657,2.80141-.51599,0-1.55019-.02657-2.01192-.02657Zm.08083,16.75308c0-3.88875-.02657-10.38957-.02657-14.03361,.35322,0,1.33205,.02657,1.90341,.02657,.02768,3.61747,.05426,10.2268,.05426,14.00703-.51599,0-1.49593-.02768-1.93109,0Z" fill="#fff"/>
  <path d="M145.20063,19.93877c-1.6587-2.82909-3.50785-5.24959-6.03797-7.72435-.70644,.62561-1.38631,1.33316-2.01192,2.06728-.05536,1.84915-.05536,3.58979-.02768,5.46662-.54367,0-1.44167,.02768-1.90341,.02768,0-6.74552,.13509-13.00052,.65219-19.55559,.5171,0,1.52361,.02768,2.01303,.05426-.32665,3.8356-.57135,7.37113-.65329,11.15137,2.28542-2.28431,4.70592-4.13457,7.31688-5.8752,.35322,.35433,.97883,1.0342,1.30548,1.4151-1.95877,1.30548-3.56321,2.47476-5.27727,3.94301,2.09497,2.1758,3.91754,4.24308,5.54856,6.66358,.29896,.46284,.32665,.898,.13619,1.2778-.19045,.43516-.59793,.81606-1.06077,1.08845Z" fill="#fff"/>
  <path d="M159.46012,19.28548c-.35433,.30007-.87032,.46284-1.49593,.49052,.08083-3.37276,.08083-6.74552-.29896-9.98209-.13619-1.22354-.5171-1.93109-1.14271-2.28431-.67987-.35322-1.60444-.29896-2.77373,.02657-1.08845,.30007-2.39393,1.30548-3.40044,2.23116-.10851,3.15463-.16277,6.58165-.08083,9.9533-.62561,.02768-1.55019,.02768-2.01303,.02768-.13619-6.52739,.27239-13.16329,.87032-19.52791h1.93109c-.21813,2.61096-.40748,4.78675-.59793,7.20726,1.06077-.81606,2.33857-1.55019,3.67173-1.82147,1.1416-.24582,2.31088-.16388,3.39934,.43405,1.03309,.54478,1.55019,1.49593,1.79489,2.53012,.48942,1.90341,.67987,6.88061,.67987,9.46499,0,.51599-.19045,.95115-.54367,1.25011Z" fill="#fff"/>
</svg>